<?xml version="1.0" standalone="no"?>
<!DOCTYPE svg PUBLIC "-//W3C//DTD SVG 20010904//EN"
 "http://www.w3.org/TR/2001/REC-SVG-20010904/DTD/svg10.dtd">
<svg version="1.0" xmlns="http://www.w3.org/2000/svg"
 width="1950.000000pt" height="1950.000000pt" viewBox="0 0 1950.000000 1950.000000"
 preserveAspectRatio="xMidYMid meet">
<metadata>
Created by potrace 1.11, written by Peter Selinger 2001-2013
</metadata>
<g transform="translate(0.000000,1950.000000) scale(0.100000,-0.100000)"
fill="#000000" stroke="none">
<path d="M9735 18048 c-4 -13 -20 -51 -36 -86 -16 -35 -29 -65 -29 -67 0 -3
-11 -28 -24 -57 -14 -29 -68 -154 -121 -278 -53 -124 -103 -238 -110 -255 -8
-16 -57 -131 -110 -255 -100 -233 -115 -268 -146 -335 -9 -22 -36 -85 -59
-140 -23 -55 -52 -122 -65 -150 -12 -27 -42 -95 -65 -150 -23 -55 -51 -118
-61 -140 -15 -34 -130 -300 -418 -970 -29 -66 -65 -149 -81 -185 -15 -36 -124
-285 -240 -555 -116 -269 -218 -503 -225 -520 -7 -16 -41 -95 -75 -175 -34
-80 -68 -158 -76 -175 -7 -16 -50 -115 -95 -220 -45 -104 -89 -208 -99 -230
-11 -22 -31 -69 -46 -105 -14 -36 -35 -85 -46 -110 -31 -69 -36 -79 -208 -480
-226 -523 -225 -520 -248 -570 -11 -25 -32 -74 -47 -110 -14 -36 -40 -96 -57
-135 -35 -80 -63 -145 -85 -195 -9 -19 -21 -49 -29 -66 -7 -16 -29 -68 -49
-114 -20 -46 -42 -98 -50 -114 -7 -17 -64 -148 -125 -291 -143 -331 -433
-1003 -683 -1580 -107 -247 -254 -587 -327 -755 -130 -302 -143 -332 -173
-400 -125 -281 -258 -625 -321 -825 -55 -177 -125 -491 -141 -635 -3 -30 -8
-68 -11 -85 -39 -224 -38 -818 2 -1065 2 -14 8 -59 14 -100 15 -112 65 -350
100 -478 146 -536 432 -1107 767 -1532 24 -30 47 -59 51 -65 17 -23 99 -121
117 -141 11 -12 49 -55 85 -95 98 -109 290 -295 425 -409 167 -142 164 -140
175 -140 6 0 10 -4 10 -8 0 -9 174 -135 315 -229 192 -127 323 -201 575 -324
156 -76 177 -86 233 -108 12 -5 42 -18 67 -29 117 -51 480 -173 492 -166 4 3
8 1 8 -5 0 -7 56 -22 87 -23 5 0 16 -4 26 -10 10 -5 28 -11 40 -14 12 -2 58
-13 102 -23 134 -33 328 -71 333 -66 3 3 10 1 16 -4 10 -8 45 -14 166 -27 25
-2 56 -7 70 -10 14 -3 48 -8 75 -10 28 -3 73 -7 100 -9 264 -24 460 -24 700 0
119 13 212 23 249 29 17 3 49 8 71 11 22 4 51 8 65 11 14 3 39 7 55 9 17 3 53
9 80 15 28 6 59 12 70 14 17 4 162 37 216 50 9 3 33 9 53 14 20 6 36 8 36 5 0
-3 6 0 13 6 8 6 22 12 33 14 72 14 94 20 94 29 0 5 4 7 9 4 4 -3 47 7 95 23
47 16 86 26 86 22 0 -3 4 -1 8 5 4 5 38 20 76 33 62 20 205 75 261 101 28 13
99 43 105 45 3 0 39 18 81 38 42 20 81 37 87 37 6 0 12 3 14 8 2 4 30 20 63
37 33 16 92 48 130 69 39 22 79 44 90 50 42 23 170 101 175 106 3 3 43 30 90
60 47 30 90 58 95 63 6 4 53 39 105 77 52 38 101 75 109 82 8 7 40 32 70 56
182 143 417 370 601 581 30 35 60 69 66 75 5 6 34 43 64 81 30 39 58 75 63 80
4 6 26 35 48 65 21 30 44 61 49 67 23 28 161 245 215 338 32 55 89 163 127
240 38 77 73 147 78 156 19 36 100 240 138 349 60 171 123 392 147 515 8 43
34 176 39 205 13 74 30 215 43 365 9 115 10 543 0 655 -15 170 -37 333 -62
460 -8 41 -16 86 -19 100 -10 61 -88 345 -126 460 -58 173 -214 557 -351 865
-12 28 -23 55 -25 60 -1 6 -49 118 -107 250 -58 132 -128 294 -157 360 -28 66
-58 134 -65 151 -8 16 -37 84 -65 149 -28 65 -57 133 -65 149 -8 17 -80 184
-160 371 -174 402 -202 467 -225 520 -10 22 -59 137 -110 255 -51 118 -100
233 -110 255 -10 22 -53 121 -95 220 -43 99 -87 200 -98 225 -11 25 -21 47
-22 50 -1 3 -6 16 -12 30 -6 14 -54 126 -107 250 -53 124 -101 233 -106 243
-6 10 -19 39 -29 65 -19 47 -163 382 -203 472 -11 24 -82 189 -158 365 -159
369 -195 453 -223 515 -11 25 -32 74 -47 110 -23 55 -132 306 -175 405 -55
125 -113 260 -160 370 -7 17 -22 50 -32 75 -11 25 -33 74 -48 110 -35 82 -45
106 -88 205 -19 44 -72 166 -117 270 -45 105 -95 218 -111 253 -16 35 -29 69
-29 76 0 6 -4 16 -9 22 -5 5 -25 48 -45 97 -20 48 -45 106 -56 130 -19 42
-185 425 -387 897 -58 135 -113 263 -123 285 -10 22 -61 141 -115 265 -53 124
-105 244 -116 267 -10 24 -59 136 -108 250 -49 115 -137 318 -196 453 -59 135
-116 269 -127 298 -23 57 -33 64 -43 30z"/>
</g>
</svg>
