<?xml version="1.0" standalone="no"?>
<!DOCTYPE svg PUBLIC "-//W3C//DTD SVG 20010904//EN"
 "http://www.w3.org/TR/2001/REC-SVG-20010904/DTD/svg10.dtd">
<svg version="1.0" xmlns="http://www.w3.org/2000/svg"
 width="270.000000pt" height="270.000000pt" viewBox="0 0 270.000000 270.000000"
 preserveAspectRatio="xMidYMid meet">
<metadata>
Created by potrace 1.11, written by Peter Selinger 2001-2013
</metadata>
<g transform="translate(0.000000,270.000000) scale(0.100000,-0.100000)"
fill="#000000" stroke="none">
<path d="M1332 2539 c-11 -24 -47 -109 -81 -189 -35 -80 -69 -158 -76 -175 -8
-16 -80 -183 -160 -370 -80 -187 -154 -358 -164 -380 -10 -22 -44 -101 -76
-175 -32 -74 -68 -157 -80 -185 -32 -71 -43 -110 -60 -205 -13 -75 -13 -94 0
-170 29 -162 83 -267 195 -381 130 -131 343 -220 530 -222 58 0 217 35 264 58
16 8 33 15 37 15 11 0 138 77 154 93 6 7 30 28 52 48 102 92 184 244 200 369
9 69 9 69 16 76 9 10 9 54 -1 54 -4 0 -7 12 -8 27 -1 44 -19 133 -34 168 -4
11 -15 36 -23 55 -8 19 -58 134 -110 255 -52 121 -102 236 -110 255 -9 19 -37
85 -63 145 -26 61 -60 138 -75 173 -16 34 -29 65 -29 67 0 4 -56 134 -90 210
-5 11 -48 110 -96 220 -47 110 -88 202 -90 204 -2 2 -12 -16 -22 -40z"/>
</g>
</svg>
